<svg width="300" height="300" viewBox="0 0 300 300" fill="none" xmlns="http://www.w3.org/2000/svg">
  <rect width="300" height="300" fill="url(#gradient)"/>
  <defs>
    <linearGradient id="gradient" x1="0%" y1="0%" x2="100%" y2="100%">
      <stop offset="0%" style="stop-color:#667eea;stop-opacity:1" />
      <stop offset="100%" style="stop-color:#764ba2;stop-opacity:1" />
    </linearGradient>
  </defs>
  
  <!-- Music Note Icon -->
  <g transform="translate(150, 150)">
    <circle cx="0" cy="0" r="80" fill="rgba(255,255,255,0.1)" stroke="rgba(255,255,255,0.3)" stroke-width="2"/>
    
    <!-- Musical Note -->
    <path d="M-20 -30 L-20 20 C-20 25 -15 30 -10 30 C-5 30 0 25 0 20 C0 15 -5 10 -10 10 C-15 10 -20 15 -20 20 Z" fill="white"/>
    <path d="M-20 -30 L20 -40 L20 -10 C20 -5 15 0 10 0 C5 0 0 -5 0 -10 C0 -15 5 -20 10 -20 C15 -20 20 -15 20 -10 Z" fill="white"/>
    <line x1="-20" y1="-30" x2="-20" y2="10" stroke="white" stroke-width="3"/>
    <line x1="20" y1="-40" x2="20" y2="-20" stroke="white" stroke-width="3"/>
    
    <!-- Connecting beam -->
    <path d="M-20 -30 L20 -40 L20 -35 L-20 -25 Z" fill="white"/>
  </g>
  
  <!-- Decorative elements -->
  <circle cx="50" cy="50" r="3" fill="rgba(255,255,255,0.4)"/>
  <circle cx="250" cy="80" r="2" fill="rgba(255,255,255,0.3)"/>
  <circle cx="80" cy="250" r="2" fill="rgba(255,255,255,0.3)"/>
  <circle cx="220" cy="220" r="3" fill="rgba(255,255,255,0.4)"/>
</svg>